<svg width="48" height="49" viewBox="0 0 48 49" fill="none" xmlns="http://www.w3.org/2000/svg">
<path fill-rule="evenodd" clip-rule="evenodd" d="M7.9134 0.991836H39.5461L39.9564 1.00031L40.3556 1.03419L40.7534 1.08502L41.1428 1.15421L41.5253 1.24458L41.9021 1.35189L42.2692 1.47756L42.6279 1.62158L42.9783 1.78113L43.3189 1.95763L43.6511 2.15249L43.9721 2.36005L44.2806 2.58172L44.5792 2.82176L44.8682 3.07451L45.1404 3.33855L45.4042 3.61671L45.6512 3.90475L45.8885 4.20833L46.1076 4.5232L46.3114 4.84796L46.5012 5.18401L46.6771 5.52853L46.8376 5.88294L46.9758 6.24582L47.1014 6.61717L47.2075 6.99841L47.2968 7.38529L47.3652 7.77923L47.4155 8.17741L47.4476 8.58548L47.4574 8.99777V41.0032L47.4476 41.4142L47.4155 41.8193L47.3652 42.2214L47.2968 42.6144L47.2075 43.0016L47.1014 43.3825L46.9758 43.7516L46.8376 44.1146L46.6771 44.4717L46.5012 44.8138L46.3114 45.1499L46.1076 45.4739L45.8885 45.789L45.6512 46.089L45.4042 46.38L45.1404 46.659L44.8682 46.9231L44.5792 47.1751L44.2806 47.4122L43.9721 47.6342L43.6511 47.8412L43.3189 48.0333L42.9783 48.2103L42.6279 48.3723L42.2692 48.5133L41.9021 48.6394L41.5253 48.7474L41.1428 48.8374L40.7534 48.9064L40.3556 48.9574L39.9564 48.9904L39.5461 48.9994H7.9134L7.50402 48.9904L7.10371 48.9574L6.70619 48.9064L6.3176 48.8374L5.93209 48.7474L5.55829 48.6394L5.1905 48.5133L4.83165 48.3723L4.47866 48.2103L4.13766 48.0333L3.8084 47.8412L3.48514 47.6342L3.17667 47.4122L2.87699 47.1751L2.58932 46.9231L2.31645 46.659L2.0525 46.38L1.80629 46.089L1.57193 45.789L1.34959 45.4739L1.14489 45.1499L0.955068 44.8138L0.780065 44.4717L0.619898 44.1146L0.480501 43.7516L0.355928 43.3825L0.24915 43.0016L0.160169 42.6144L0.0919473 42.2214L0.0415246 41.8193L0.00889813 41.4142L0 41.0032V8.99777L0.00889813 8.58548L0.0415246 8.17741L0.0919473 7.77923L0.160169 7.38529L0.24915 6.99841L0.355928 6.61717L0.480501 6.24582L0.619898 5.88294L0.780065 5.52853L0.955068 5.18401L1.14489 4.84796L1.34959 4.5232L1.57193 4.20833L1.80629 3.90475L2.0525 3.61671L2.31645 3.33855L2.58932 3.07451L2.87699 2.82176L3.17667 2.58172L3.48514 2.36005L3.8084 2.15249L4.13766 1.95763L4.47866 1.78113L4.83165 1.62158L5.1905 1.47756L5.55829 1.35189L5.93209 1.24458L6.3176 1.15421L6.70619 1.08502L7.10371 1.03419L7.50402 1.00031L7.9134 0.991836V0.991836Z" fill="#003499"/>
<path fill-rule="evenodd" clip-rule="evenodd" d="M3.95361 40.9971H7.64337V24.9923H3.95361V40.9971V40.9971Z" fill="#FFFF01"/>
<path fill-rule="evenodd" clip-rule="evenodd" d="M24.1766 28.6526H23.9658L23.7579 28.6596L23.5527 28.6681L23.3545 28.6808L23.1591 28.6921L22.9665 28.7105L22.7766 28.7316L22.5896 28.7528L22.4082 28.7796L22.2309 28.8065L22.055 28.8361L21.8833 28.8686L21.7172 28.9025L21.5539 28.9378L21.3934 28.9773L21.2371 29.0169L21.085 29.0578L20.937 29.1002L20.7946 29.1453L20.6551 29.1905L20.5183 29.2357L20.3885 29.2837L20.2614 29.3317L20.1386 29.3826L20.02 29.4306L19.9055 29.4814L19.7952 29.5322L19.6878 29.5831L19.5873 29.6339L19.4896 29.6847L19.3974 29.737L19.3081 29.7878L20.0032 32.1458L20.0828 32.0978L20.1665 32.0498L20.2517 32.0018L20.341 31.9566L20.4331 31.9114L20.528 31.8662L20.6257 31.821L20.7262 31.7801L20.8309 31.7377L20.937 31.6954L21.0445 31.653L21.1533 31.6149L21.2636 31.5782L21.3767 31.5401L21.4911 31.5034L21.607 31.4709L21.7256 31.437L21.8443 31.4073L21.9657 31.3777L22.0843 31.3509L22.2072 31.324L22.3314 31.3L22.4528 31.2788L22.577 31.2577L22.6985 31.2393L22.8241 31.2252L22.9483 31.2097L23.0698 31.2012L23.194 31.1913L23.3154 31.1828L23.441 31.18H23.5625L23.7579 31.1828L23.9477 31.1913L24.125 31.2068L24.2911 31.2252L24.4516 31.252L24.6037 31.2817L24.7461 31.317L24.8787 31.3565L25.0071 31.4017L25.1257 31.4497L25.2346 31.5005L25.3351 31.5542L25.43 31.6121L25.5194 31.6714L25.6031 31.7349L25.6771 31.797L25.7455 31.8634L25.8097 31.9326L25.8669 31.999L25.9172 32.0681L25.9618 32.1402L26.0037 32.2093L26.0386 32.2771L26.0707 32.3463L26.0986 32.4155L26.1181 32.4819L26.1363 32.5482L26.1516 32.6103L26.1628 32.6739L26.1698 32.7332L26.1754 32.7911V32.8447V32.9732L25.7329 32.9775L25.3002 32.9888L24.8787 33.0099L24.4697 33.0396L24.0719 33.0791L23.6867 33.13L23.3098 33.1864L22.9483 33.2556L22.598 33.3305L22.263 33.418L21.9364 33.514L21.6251 33.6185L21.3292 33.7329L21.0445 33.8557L20.7709 33.9884L20.5127 34.1296L20.2698 34.2793L20.0409 34.4375L19.8246 34.6055L19.6264 34.7862L19.4393 34.9722L19.2704 35.1672L19.1155 35.3742L18.9731 35.5872L18.8517 35.8092L18.7428 36.0433L18.6507 36.2833L18.5767 36.5354L18.5167 36.7933L18.472 37.0605L18.4483 37.3395L18.4399 37.6246L18.4427 37.7956L18.4539 37.9666L18.4748 38.1376L18.5055 38.3056L18.5432 38.4736L18.5879 38.6416L18.6409 38.8067L18.7037 38.9688L18.7721 39.1278L18.8517 39.2838L18.9382 39.4369L19.0304 39.5868L19.1309 39.7338L19.2411 39.8749L19.3598 40.0129L19.484 40.145L19.6166 40.2709L19.7562 40.3909L19.9055 40.505L20.0591 40.613L20.2224 40.715L20.394 40.811L20.5727 40.898L20.7597 40.9761L20.9524 41.0481L21.1506 41.111L21.3613 41.1651L21.5749 41.21L21.7968 41.246L22.0257 41.2731L22.263 41.2881L22.5059 41.294L22.6538 41.2911L22.8004 41.2851L22.9427 41.2791L23.0851 41.2671L23.2233 41.2521L23.3629 41.234L23.4997 41.2131L23.6364 41.1891L23.769 41.1591L23.9002 41.1291L24.0301 41.0961L24.1585 41.0601L24.2827 41.0211L24.4069 40.979L24.5284 40.931L24.647 40.883L24.7628 40.832L24.8787 40.778L24.9917 40.724L25.102 40.664L25.2081 40.601L25.3114 40.5379L25.4161 40.469L25.5138 40.4L25.6115 40.328L25.7064 40.253L25.7985 40.1749L25.8851 40.0939L25.9702 40.0129L26.0539 39.9289L26.1335 39.8418L26.2103 39.7519H26.2521L26.6555 40.9971H29.6579V33.9037L29.6537 33.634L29.6397 33.37L29.6188 33.1088L29.5895 32.8504L29.5504 32.5962L29.5001 32.3463L29.4443 32.1034L29.3759 31.8662L29.295 31.6333L29.2098 31.4073L29.1079 31.1885L28.999 30.9753L28.8776 30.7691L28.7464 30.57L28.6012 30.378L28.4477 30.1959L28.2816 30.0208L28.1002 29.857L27.9075 29.7003L27.7024 29.5534L27.486 29.415L27.2543 29.2894L27.0114 29.1722L26.7532 29.0677L26.4838 28.9717L26.1963 28.8898L25.8962 28.8178L25.5822 28.7585L25.2528 28.7133L24.908 28.6808L24.5493 28.6596L24.1766 28.6526V28.6526ZM26.2815 36.5714V36.6434L26.2787 36.7184L26.2731 36.7933L26.2675 36.8714L26.2577 36.9464L26.2494 37.0245L26.2368 37.0995L26.22 37.1744L26.2131 37.2014L26.2019 37.2405L26.1935 37.2765L26.1837 37.3005L26.1726 37.3305L26.16 37.3605L26.1279 37.4355L26.0916 37.5075L26.0539 37.5795L26.0121 37.6515L25.9674 37.7206L25.9199 37.7926L25.8697 37.8615L25.8167 37.9276L25.7594 37.9935L25.7036 38.0596L25.6408 38.1226L25.5766 38.1856L25.511 38.2456L25.4426 38.3026L25.3686 38.3597L25.2946 38.4136L25.2165 38.4647L25.1397 38.5157L25.0574 38.5607L24.9736 38.6056L24.8885 38.6477L24.7991 38.6837L24.7098 38.7197L24.6149 38.7528L24.52 38.7797L24.4251 38.8067L24.3246 38.8277L24.2241 38.8457L24.1222 38.8608L24.0161 38.8697L23.9086 38.8787H23.8025H23.7076L23.6155 38.8728L23.5262 38.8667L23.4368 38.8547L23.3517 38.8397L23.268 38.8248L23.1856 38.8037L23.1046 38.7797L23.0307 38.7557L22.9539 38.7256L22.8827 38.6927L22.8143 38.6567L22.7459 38.6207L22.6845 38.5787L22.6217 38.5336L22.5659 38.4887L22.5087 38.4376L22.4584 38.3837L22.4082 38.3296L22.3635 38.2696L22.3216 38.2066L22.2811 38.1436L22.2448 38.0746L22.2127 38.0055L22.1862 37.9335L22.1597 37.8556L22.1388 37.7775L22.1206 37.6966L22.1053 37.6095L22.0969 37.5225L22.0913 37.4325L22.0885 37.3395L22.0913 37.2344L22.0997 37.1355L22.115 37.0365L22.1318 36.9405L22.1555 36.8504L22.1862 36.7604L22.2211 36.6764L22.2602 36.5924L22.3049 36.5114L22.3523 36.4364L22.4054 36.3613L22.464 36.2893L22.5268 36.2204L22.5952 36.1572L22.6664 36.0943L22.7431 36.0343L22.8241 35.9743L22.9064 35.9203L22.9958 35.8692L23.0879 35.8182L23.1828 35.7702L23.2833 35.7252L23.3838 35.6832L23.4913 35.6443L23.6029 35.6052L23.716 35.5723L23.8319 35.5392L23.9533 35.5062L24.0747 35.4792L24.2031 35.4522L24.3301 35.4282L24.4641 35.4072L24.5884 35.3891L24.7182 35.3712L24.8494 35.3562L24.9862 35.3411L25.1216 35.3322L25.2639 35.3202L25.4063 35.3142L25.5529 35.3082L25.6408 35.3051L25.7301 35.3021L25.8222 35.2992H25.9116H26.0037H26.0944H26.1865H26.2815V36.5714V36.5714Z" fill="#FFFF01"/>
<path fill-rule="evenodd" clip-rule="evenodd" d="M39.8486 29.0041V36.0343V36.1393L39.843 36.2412L39.8333 36.3404L39.8193 36.4364L39.804 36.5324L39.783 36.6223L39.7565 36.7124L39.7244 36.7964L39.6979 36.8653L39.6644 36.9344L39.6295 37.0034L39.5932 37.0725L39.5555 37.1384L39.5136 37.2075L39.469 37.2765L39.4215 37.3425L39.3713 37.4085L39.321 37.4745L39.2638 37.5406L39.208 37.6035L39.1493 37.6635L39.0865 37.7235L39.0209 37.7806L38.9525 37.8375L38.8813 37.8916L38.8102 37.9455L38.7334 37.9935L38.6566 38.0415L38.5729 38.0836L38.4905 38.1255L38.404 38.1646L38.3147 38.1975L38.2239 38.2306L38.129 38.2576L38.0299 38.2816L37.9294 38.2996L37.8289 38.3176L37.7215 38.3266L37.6154 38.3356H37.5023L37.3655 38.3327L37.2329 38.3236L37.1017 38.3087L36.9775 38.2847L36.8589 38.2576L36.743 38.2216L36.6341 38.1796L36.5295 38.1316L36.429 38.0806L36.334 38.0206L36.2419 37.9545L36.1554 37.8825L36.0758 37.8076L35.9963 37.7235L35.9251 37.6366L35.8567 37.5435L35.7911 37.4445L35.7325 37.3395L35.678 37.2285L35.625 37.1144L35.5803 36.9944L35.5357 36.8685L35.498 36.7364L35.4645 36.6013L35.4352 36.4604L35.4086 36.3164L35.3877 36.1663L35.3696 36.0102L35.3556 35.8513L35.3458 35.6862L35.3402 35.5182L35.3375 35.3442V28.9985H31.7363V36.0102V36.1873L31.7419 36.3583L31.7489 36.5234L31.7573 36.6884L31.7698 36.8504L31.7838 37.0094L31.8019 37.1624L31.8201 37.3155L31.8438 37.4625L31.8675 37.6065L31.8941 37.7475L31.9262 37.8855L31.9597 38.0206L31.9945 38.1526L32.0308 38.2816L32.0713 38.4047L32.1132 38.5277L32.1606 38.6477L32.2053 38.7647L32.2556 38.8787L32.3058 38.9897L32.3561 39.0977L32.4133 39.2027L32.4691 39.3078L32.5249 39.4068L32.585 39.5057L32.6478 39.6018L32.712 39.6918L32.7776 39.7818L32.846 39.8689L32.9144 39.9529L32.9856 40.0338L33.0595 40.1149L33.1363 40.1899L33.2131 40.265L33.2912 40.3339L33.3736 40.4029L33.4545 40.469L33.5397 40.532L33.6262 40.592L33.7155 40.649L33.8035 40.703L33.8956 40.7539L33.9877 40.8051L34.0826 40.85L34.1803 40.895L34.2781 40.934L34.3799 40.9731L34.4832 41.0091L34.5837 41.042L34.6912 41.075L34.7945 41.102L34.9048 41.1291L35.0108 41.1531L35.1211 41.1771L35.2342 41.195L35.3458 41.2131L35.4589 41.2281L35.5747 41.2401L35.6906 41.2521L35.8092 41.2611L35.9279 41.2641L36.0493 41.27H36.1707H36.2782L36.3815 41.2671L36.482 41.2641L36.5825 41.258L36.6844 41.2491L36.7821 41.2401L36.8798 41.231L36.9747 41.2161L37.0668 41.2041L37.159 41.186L37.2511 41.171L37.339 41.15L37.4255 41.1321L37.5121 41.1081L37.5972 41.0841L37.681 41.0601L37.8401 41.006L37.9978 40.9491L38.1458 40.8891L38.2909 40.8291L38.4305 40.763L38.5645 40.697L38.6915 40.625L38.813 40.553L38.9288 40.4779L39.0419 40.4029L39.1493 40.325L39.2526 40.2469L39.3503 40.1659L39.4425 40.0818L39.529 39.9978L39.6113 39.9108L39.6909 39.8268L39.7663 39.7428L39.8333 39.6618L39.8989 39.5838L39.9617 39.5089L40.0175 39.4337L40.0678 39.3648L40.1152 39.2928L40.5786 40.9971H43.5028V29.0041H39.8486V29.0041Z" fill="#FFFF01"/>
<path fill-rule="evenodd" clip-rule="evenodd" d="M11.1046 24.9927V28.9985H9.42285V31.7321H11.1046V36.6104L11.1076 36.7604L11.1105 36.9074L11.1136 37.0544L11.1194 37.1955L11.1284 37.3365L11.1402 37.4745L11.1521 37.6095L11.1669 37.7446L11.1817 37.8735L11.1995 38.0026L11.2203 38.1287L11.2441 38.2516L11.2678 38.3717L11.2945 38.4917L11.3211 38.6056L11.3508 38.7197L11.3834 38.8307L11.419 38.9387L11.4546 39.0438L11.4932 39.1457L11.5347 39.2478L11.5763 39.3438L11.6207 39.4398L11.6681 39.5298L11.7156 39.6198L11.7661 39.7068L11.8194 39.7908L11.8758 39.8749L11.9322 39.9529L11.9915 40.0279L12.0538 40.1029L12.116 40.1719L12.1753 40.2319L12.2347 40.292L12.2969 40.349L12.3593 40.4059L12.4274 40.46L12.4957 40.5139L12.5698 40.568L12.644 40.619L12.7182 40.6699L12.7983 40.7179L12.8783 40.763L12.9613 40.811L13.0474 40.8531L13.1334 40.895L13.2254 40.9371L13.3143 40.9731L13.4092 41.0121L13.5041 41.0451L13.602 41.078L13.7 41.1081L13.8007 41.138L13.9046 41.162L14.0083 41.186L14.1158 41.2071L14.2218 41.2281L14.3321 41.246L14.441 41.258L14.554 41.27L14.6671 41.282L14.7829 41.2881L14.8988 41.2911L15.0174 41.294L15.2128 41.2911L15.3929 41.2851L15.5632 41.2761L15.7167 41.2641L15.8619 41.2491L15.9959 41.2311L16.1229 41.21L16.2387 41.186L16.3518 41.162L16.4551 41.135L16.5528 41.1051L16.6505 41.075L16.8347 41.0091L17.0162 40.9401V38.1527L16.9687 38.1706L16.9059 38.1887L16.832 38.2066L16.7398 38.2216L16.6365 38.2367L16.5207 38.2456L16.3965 38.2546L16.2625 38.2576L16.1438 38.2546L16.0336 38.2487L15.9275 38.2367L15.827 38.2186L15.7321 38.1976L15.6427 38.1736L15.5562 38.1436L15.4766 38.1076L15.4027 38.0686L15.3315 38.0266L15.2631 37.9756L15.2031 37.9246L15.1445 37.8676L15.0914 37.8076L15.0412 37.7415L14.9965 37.6695L14.9546 37.5975L14.9155 37.5166L14.8806 37.4355L14.8471 37.3485L14.8206 37.2555L14.7941 37.1624L14.7732 37.0605L14.7522 36.9584L14.7383 36.8504L14.7229 36.7364L14.7118 36.6224L14.702 36.5023L14.6964 36.3764L14.6908 36.2503L14.688 36.1183V35.9833V31.7321H16.9771V28.9985H14.688V24.9927H11.1046V24.9927Z" fill="#FFFF01"/>
<path fill-rule="evenodd" clip-rule="evenodd" d="M38.4878 24.9899L36.2629 28.2247H38.8368L41.9731 24.9899H38.4878V24.9899Z" fill="#FFFF01"/>
</svg>
